<svg width="90" height="95" viewBox="0 0 90 95" fill="none" xmlns="http://www.w3.org/2000/svg">
<path fill-rule="evenodd" clip-rule="evenodd" d="M66.8466 83.7146C65.5417 83.715 64.2657 83.3288 63.1805 82.6045C62.0953 81.8803 61.2497 80.8508 60.7501 79.6461C60.2505 78.4414 60.1198 77.1156 60.3742 75.8366C60.6287 74.5575 61.2567 73.3826 62.1794 72.4605C63.1021 71.5384 64.2781 70.9104 65.558 70.6561C66.8378 70.4018 68.1644 70.5326 69.3699 71.0319C70.5754 71.5312 71.6055 72.3765 72.3302 73.4609C73.0548 74.5454 73.4415 75.8203 73.441 77.1244C73.4404 78.872 72.7452 80.5479 71.5086 81.7837C70.2721 83.0194 68.5954 83.7139 66.8466 83.7146Z" fill="#DFDFDF"/>
<path d="M80.2722 92.4475C77.4508 90.4256 74.8037 88.1715 72.3583 85.7087C73.566 84.9246 74.5956 83.896 75.3807 82.6894C78.9266 86.0285 86.9941 93.2072 78.9635 81.3647C86.6978 90.2927 86.7905 94.0183 84.1882 94.0183C82.7636 93.8627 81.4091 93.3193 80.2722 92.4475ZM44.7562 89.4485C34.4349 89.4491 24.4306 85.8844 16.4379 79.3584C8.44519 72.8323 2.95525 63.7461 0.89803 53.6386C-1.15919 43.531 0.34287 33.0236 5.14954 23.8959C9.95622 14.7682 17.772 7.58142 27.2734 3.55272C36.7748 -0.475974 47.3776 -1.09906 57.2858 1.78935C67.1941 4.67777 75.7988 10.9001 81.6425 19.4021C87.4862 27.9042 90.2099 38.1634 89.3519 48.4422C88.4939 58.7211 84.1071 68.3874 76.9346 75.8043C76.759 74.4555 76.3138 73.1558 75.6253 71.9824C74.9368 70.8089 74.0193 69.7859 72.9271 68.9741C77.0787 63.4992 79.1562 56.732 78.7915 49.8723C78.4268 43.0127 75.6433 36.5037 70.9346 31.4992C66.2258 26.4948 59.8959 23.3184 53.0672 22.5329C46.2384 21.7474 39.3521 23.4034 33.6287 27.2078C27.9054 31.0122 23.7148 36.719 21.8 43.3165C19.8853 49.9139 20.3701 56.9759 23.1683 63.2503C25.9665 69.5247 30.8976 74.606 37.0872 77.5938C43.2767 80.5816 50.3248 81.2829 56.9823 79.5729C57.3203 80.9329 57.9359 82.2083 58.7904 83.3194C59.6448 84.4305 60.7198 85.3533 61.9478 86.0298C56.5204 88.2865 50.7 89.4484 44.8215 89.4485H44.7562ZM51.2364 64.0344C47.3097 58.7666 49.5085 54.7082 62.376 64.811C50.0213 57.2767 57.888 65.2448 61.3375 68.5601C60.1249 69.3358 59.0891 70.3582 58.2983 71.5605C55.7362 69.2553 53.374 66.7375 51.2364 64.0344Z" fill="#DFDFDF"/>
</svg>
